<?xml version="1.0" encoding="utf-8"?>
<!-- Generator: Adobe Illustrator 26.0.3, SVG Export Plug-In . SVG Version: 6.00 Build 0)  -->
<svg version="1.1" id="Warstwa_1" xmlns="http://www.w3.org/2000/svg" xmlns:xlink="http://www.w3.org/1999/xlink" x="0px" y="0px"
	 viewBox="0 0 430 430" style="enable-background:new 0 0 430 430;" xml:space="preserve">
<style type="text/css">
	.st0{fill:#EBE6EF;}
	.st1{opacity:0.5;fill:#EBE6EF;}
	.st2{fill:#FFC738;}
	.st3{opacity:0.5;fill:#FFC738;}
	.st4{fill:#4BB3FD;}
	.st5{opacity:0.5;fill:#4BB3FD;}
	.st6{fill:#F24C00;}
	.st7{opacity:0.5;fill:#F24C00;}
	.st8{fill:#2CA58D;}
	.st9{opacity:0.5;fill:#2CA58D;}
	.st10{fill:#F9C9C0;}
	.st11{opacity:0.5;fill:#F9C9C0;}
	.st12{fill:#646E78;}
	.st13{fill:#B26836;}
	.st14{opacity:0.5;fill:#B26836;}
	.st15{fill:#3A3347;}
	.st16{opacity:0.5;fill:#3A3347;}
	.st17{fill:#121331;}
	.st18{opacity:0.5;}
	.st19{fill:#F28BA8;}
	.st20{opacity:0.5;fill:#F28BA8;}
	.st21{fill:none;stroke:#121331;stroke-width:7;stroke-linecap:round;stroke-linejoin:round;stroke-miterlimit:10;}
	.st22{fill:#92140C;}
	.st23{opacity:0.5;fill:#646E78;}
	.st24{opacity:0.5;fill:#92140C;}
	.st25{fill:none;}
	.st26{fill:none;stroke:#121331;stroke-width:8.2195;stroke-linecap:round;stroke-linejoin:round;stroke-miterlimit:10;}
	.st27{fill:none;stroke:#121331;stroke-width:7.8024;stroke-linecap:round;stroke-linejoin:round;stroke-miterlimit:10;}
	.st28{fill:none;stroke:#121331;stroke-width:7.9426;stroke-linecap:round;stroke-linejoin:round;stroke-miterlimit:10;}
</style>
<polygon class="st4" points="401.7,173.4 401.7,173.4 401.7,173.4 336.9,318.5 93.1,318.5 28.3,173.4 28.3,173.4 28.3,173.4 
	147.2,197.5 215,111.5 282.8,197.5 "/>
<polygon class="st5" points="215,269.4 126.4,223.8 126.4,223.8 105.3,213 28.3,173.4 28.3,173.4 129,193.8 147.2,197.5 
	133.4,214.9 "/>
<polygon class="st5" points="304,223.6 215,269.4 215,111.5 282.8,197.5 "/>
<polygon class="st5" points="336.9,318.5 93.1,318.5 215,269.4 "/>
<g>
	<path class="st17" d="M336.9,322H93.1c-1.4,0-2.6-0.8-3.2-2.1L25.1,174.8c-0.5-1.2-0.4-2.6,0.5-3.6c0.8-1,2.1-1.5,3.4-1.2
		L147.9,194c1.9,0.4,3.1,2.2,2.7,4.1c-0.4,1.9-2.2,3.1-4.1,2.7L34.2,178.2L95.4,315h239.3l61.1-136.8l-112.2,22.7
		c-1.9,0.4-3.7-0.8-4.1-2.7c-0.4-1.9,0.8-3.7,2.7-4.1L401,169.9c1.3-0.3,2.6,0.2,3.4,1.2c0.8,1,1,2.4,0.5,3.6l-64.8,145.1
		C339.5,321.2,338.3,322,336.9,322z"/>
	<path class="st17" d="M303.6,227.3c-1,0-2.1-0.5-2.7-1.3L215,117.2L129.1,226c-1.2,1.5-3.4,1.8-4.9,0.6c-1.5-1.2-1.8-3.4-0.6-4.9
		l88.6-112.3c0.7-0.8,1.7-1.3,2.7-1.3s2.1,0.5,2.7,1.3l88.6,112.3c1.2,1.5,0.9,3.7-0.6,4.9C305.1,227.1,304.4,227.3,303.6,227.3z"/>
	<path class="st17" d="M215,272.9c-1.9,0-3.5-1.6-3.5-3.5V111.5c0-1.9,1.6-3.5,3.5-3.5s3.5,1.6,3.5,3.5v157.9
		C218.5,271.3,216.9,272.9,215,272.9z"/>
	<path class="st17" d="M336.9,322H93.1c-1.7,0-3.1-1.2-3.4-2.8c-0.3-1.6,0.6-3.3,2.1-3.9l121.9-49.1c0.8-0.3,1.8-0.3,2.6,0
		l121.9,49.1c1.6,0.6,2.4,2.3,2.1,3.9C340,320.8,338.6,322,336.9,322z M111.1,315h207.7L215,273.2L111.1,315z"/>
	<path class="st17" d="M215,272.9c-0.5,0-1.1-0.1-1.6-0.4l-186.7-96c-1.7-0.9-2.4-3-1.5-4.7c0.9-1.7,3-2.4,4.7-1.5l186.7,96
		c1.7,0.9,2.4,3,1.5,4.7C217.5,272.2,216.3,272.9,215,272.9z"/>
	<path class="st17" d="M215,272.9c-1.3,0-2.5-0.7-3.1-1.9c-0.9-1.7-0.2-3.8,1.5-4.7l186.7-96c1.7-0.9,3.8-0.2,4.7,1.5
		c0.9,1.7,0.2,3.8-1.5,4.7l-186.7,96C216.1,272.8,215.5,272.9,215,272.9z"/>
</g>
</svg>
