<?xml version="1.0" encoding="utf-8"?>
<!-- Generator: Adobe Illustrator 24.0.2, SVG Export Plug-In . SVG Version: 6.00 Build 0)  -->
<svg version="1.1" id="Warstwa_1" xmlns="http://www.w3.org/2000/svg" xmlns:xlink="http://www.w3.org/1999/xlink" x="0px" y="0px"
	 viewBox="0 0 430 430" style="enable-background:new 0 0 430 430;" xml:space="preserve">
<style type="text/css">
	.st0{fill:#ebe6ef;}
	.st1{opacity:0.5;}
	.st2{fill:#121331;}
	.st3{fill:#3A3347;}
	.st4{fill:#4bb3fd;}
	.st5{fill:#F24C00;}
	.st6{fill:#ffc738;}
	.st7{fill:#2CA58D;}
	.st8{display:none;}
	.st9{display:inline;fill:none;stroke:#121331;stroke-width:7;stroke-linecap:round;stroke-linejoin:round;}
	.st10{display:none;fill:none;stroke:#121331;stroke-width:7;stroke-linecap:round;stroke-linejoin:round;stroke-miterlimit:10;}
	.st11{fill:#F9C9C0;}
	.st12{fill:#F28BA8;}
	.st13{fill:#646E78;}
	.st14{fill:#B26836;}
	.st15{opacity:0.6;}
	.st16{opacity:0.7;}
	.st17{fill:#92140C;}
	.st18{opacity:0;}
	.st19{opacity:0.4;}
	.st20{opacity:0.8;}
	.st21{fill:none;}
	.st22{opacity:0.2;clip-path:url(#SVGID_2_);}
	.st23{opacity:0.2;clip-path:url(#SVGID_4_);}
	.st24{opacity:0.2;clip-path:url(#SVGID_6_);}
	.st25{opacity:0.2;clip-path:url(#SVGID_8_);}
	.st26{opacity:0.2;clip-path:url(#SVGID_10_);}
	.st27{opacity:0.2;clip-path:url(#SVGID_12_);}
	.st28{fill:#FFFFFF;}
</style>
<g>
	<circle class="st0" cx="215" cy="215" r="164.06"/>
</g>
<g>
	<path class="st6" d="M215.42,50.94C215.42,50.94,215.41,50.94,215.42,50.94c-0.53,0-1.04,0.21-1.42,0.58
		c-0.38,0.38-0.59,0.88-0.59,1.42v57.29c0,0.6,0.27,1.16,0.73,1.54s1.06,0.53,1.65,0.42c4.97-0.95,9.33-1.47,12.26-1.47
		c12.61,0,22.88,10.26,22.88,22.88s-10.26,22.88-22.88,22.88c-2.95,0-7.3-0.52-12.26-1.47c-0.59-0.11-1.19,0.04-1.65,0.42
		c-0.46,0.38-0.73,0.95-0.73,1.54v57.29c0,1.1,0.9,2,2,2h54.78c-0.72,4.23-1.11,7.95-1.11,10.64c0,14.82,12.06,26.88,26.88,26.88
		s26.88-12.06,26.88-26.88c0-2.7-0.39-6.42-1.11-10.64h54.9c1.1,0,2-0.9,2-2C378.62,124.27,305.41,51,215.42,50.94z"/>
</g>
<g>
	<path class="st4" d="M201.95,273.52c2.95,0,7.31,0.52,12.26,1.47c0.58,0.11,1.19-0.04,1.65-0.42s0.73-0.94,0.73-1.54v-57.29
		c0-1.1-0.9-2-2-2h-54.78c0.72-4.23,1.11-7.95,1.11-10.64c0-14.82-12.06-26.88-26.88-26.88s-26.88,12.06-26.88,26.88
		c0,2.7,0.39,6.42,1.11,10.64h-54.9c-1.1,0-2,0.9-2,2c0,90,73.21,163.26,163.2,163.32c0,0,0,0,0,0c0.53,0,1.04-0.21,1.41-0.58
		c0.38-0.38,0.59-0.88,0.59-1.42v-57.29c0-0.6-0.27-1.16-0.73-1.54s-1.07-0.54-1.65-0.42c-4.97,0.95-9.33,1.47-12.26,1.47
		c-12.61,0-22.88-10.26-22.88-22.88S189.33,273.52,201.95,273.52z"/>
</g>
<g class="st1">
	<path class="st0" d="M78.78,199.75c0,4.77,0.2,9.49,0.61,14.15H50.95c0.44-67.27,41.38-124.93,99.65-149.82
		C107.25,93.6,78.78,143.35,78.78,199.75z"/>
</g>
<g class="st1">
	<path class="st4" d="M216.59,361.72v17.33c-0.53,0.01-1.06,0.01-1.59,0.01c-90.61,0-164.06-73.45-164.06-164.06
		c0-0.37,0-0.73,0.01-1.1h28.44C85.81,289.14,143.02,349.89,216.59,361.72z"/>
</g>
<g class="st1">
	<path class="st0" d="M307.25,350.68c-25.88,17.62-57.07,28.05-90.66,28.37v-17.33c8.55,1.38,17.32,2.09,26.25,2.09
		C265.7,363.81,287.47,359.13,307.25,350.68z"/>
</g>
<g>
	<path class="st2" d="M215,382.56c-92.39,0-167.56-75.17-167.56-167.56S122.61,47.44,215,47.44S382.56,122.61,382.56,215
		S307.39,382.56,215,382.56z M215,54.44c-88.53,0-160.56,72.03-160.56,160.56c0,88.53,72.03,160.56,160.56,160.56
		c88.53,0,160.56-72.03,160.56-160.56C375.56,126.47,303.53,54.44,215,54.44z"/>
</g>
<g>
	<path class="st2" d="M295.96,257.28c-16.75,0-30.38-13.63-30.38-30.38c0-1.96,0.19-4.39,0.54-7.14h-50.71c-3.03,0-5.5-2.47-5.5-5.5
		v-57.29c0-1.65,0.73-3.19,2-4.24c1.25-1.04,2.91-1.46,4.52-1.17c4.76,0.91,8.89,1.41,11.62,1.41c10.68,0,19.38-8.69,19.38-19.38
		c0-10.68-8.69-19.38-19.38-19.38c-2.72,0-6.85,0.5-11.61,1.41c-1.62,0.31-3.27-0.12-4.54-1.17c-1.27-1.05-1.99-2.59-1.99-4.24
		V52.94c0-1.45,0.59-2.87,1.61-3.89c1.04-1.04,2.42-1.61,3.89-1.61c0,0,0,0,0,0c91.92,0.06,166.7,74.9,166.7,166.82
		c0,3.03-2.47,5.5-5.5,5.5h-50.83c0.36,2.75,0.54,5.17,0.54,7.14C326.33,243.65,312.71,257.28,295.96,257.28z M216.91,212.76h53.28
		c1.03,0,2.01,0.46,2.67,1.24s0.95,1.83,0.78,2.85c-0.69,4.02-1.06,7.59-1.06,10.05c0,12.89,10.49,23.38,23.38,23.38
		s23.38-10.49,23.38-23.38c0-2.47-0.38-6.04-1.06-10.05c-0.17-1.02,0.11-2.06,0.78-2.85s1.64-1.24,2.67-1.24h53.39
		c-0.8-86.88-71.32-157.45-158.2-158.31v53.98c4.44-0.78,8.35-1.21,11.14-1.21c14.54,0,26.38,11.83,26.38,26.38
		s-11.83,26.38-26.38,26.38c-2.8,0-6.7-0.42-11.14-1.21V212.76z"/>
</g>
<g>
	<path class="st2" d="M214.59,382.56c-91.92-0.06-166.71-74.9-166.71-166.82c0-3.03,2.47-5.5,5.5-5.5h50.83
		c-0.36-2.75-0.54-5.17-0.54-7.14c0-16.75,13.63-30.38,30.38-30.38c16.75,0,30.38,13.63,30.38,30.38c0,1.96-0.19,4.39-0.54,7.14
		h50.71c3.03,0,5.5,2.47,5.5,5.5v57.29c0,1.64-0.73,3.19-1.99,4.24c-1.27,1.05-2.92,1.47-4.53,1.17c-4.75-0.91-8.88-1.41-11.61-1.41
		c-10.68,0-19.38,8.69-19.38,19.38c0,10.68,8.69,19.38,19.38,19.38c2.72,0,6.85-0.5,11.61-1.41c1.62-0.31,3.27,0.12,4.54,1.16
		c1.27,1.05,2,2.59,2,4.24v57.29c0,1.45-0.59,2.87-1.62,3.89C217.43,381.99,216.05,382.56,214.59,382.56z M54.89,217.24
		c0.8,86.88,71.32,157.45,158.2,158.31v-53.98c-4.44,0.78-8.35,1.21-11.14,1.21c-14.54,0-26.38-11.83-26.38-26.38
		s11.83-26.38,26.38-26.38c2.79,0,6.7,0.42,11.14,1.21v-53.99H159.8c-1.03,0-2.01-0.46-2.67-1.24c-0.67-0.79-0.95-1.83-0.78-2.85
		c0.69-4.02,1.07-7.59,1.07-10.05c0-12.89-10.49-23.38-23.38-23.38s-23.38,10.49-23.38,23.38c0,2.47,0.38,6.04,1.06,10.05
		c0.17,1.02-0.11,2.06-0.78,2.85c-0.67,0.79-1.64,1.24-2.67,1.24H54.89z"/>
</g>
</svg>
